<svg width="762" height="762" xmlns="http://www.w3.org/2000/svg" xmlns:xlink="http://www.w3.org/1999/xlink" overflow="hidden"><defs><clipPath id="clip0"><rect x="0" y="0" width="762" height="762"/></clipPath></defs><g clip-path="url(#clip0)"><rect x="0" y="0" width="762" height="762" fill="#FFFFFF"/><g><g><g><path d="M137.042 488.583 137.042 83.4167 286 83.4167 286 208.542 434.958 208.542 434.958 488.583 137.042 488.583ZM321.75 98.3125 396.229 172.792 321.75 172.792 321.75 98.3125ZM321.75 47.6667 101.292 47.6667 101.292 524.333 470.708 524.333 470.708 178.75 321.75 47.6667Z" transform="matrix(1 0 0 1.00175 63 64)"/><path d="M172.792 268.125 399.208 268.125 399.208 291.958 172.792 291.958Z" transform="matrix(1 0 0 1.00175 63 64)"/><path d="M172.792 220.458 250.25 220.458 250.25 244.292 172.792 244.292Z" transform="matrix(1 0 0 1.00175 63 64)"/><path d="M172.792 315.792 399.208 315.792 399.208 339.625 172.792 339.625Z" transform="matrix(1 0 0 1.00175 63 64)"/><path d="M172.792 363.458 399.208 363.458 399.208 387.292 172.792 387.292Z" transform="matrix(1 0 0 1.00175 63 64)"/><path d="M172.792 411.125 399.208 411.125 399.208 434.958 172.792 434.958Z" transform="matrix(1 0 0 1.00175 63 64)"/></g></g></g><g><g><g><path d="M610.787 554.544C609.419 554.544 607.594 554.544 606.225 554.544 606.225 554.544 606.225 554.544 606.225 554.544 606.225 532.188 595.275 511.656 577.481 498.881 559.231 486.106 535.962 482.913 514.975 490.213 497.638 456.45 459.312 439.113 422.812 447.781 386.312 456.45 359.85 489.3 359.85 527.169 359.85 527.169 359.85 527.625 359.85 528.081 334.756 523.975 309.663 534.469 294.15 554.544 279.094 575.075 276.356 601.994 286.85 624.806 297.8 647.619 320.613 662.675 345.706 664.044L345.706 664.5 610.331 664.5C640.444 664.5 665.081 639.863 665.081 609.75 665.081 579.638 640.9 554.544 610.787 554.544Z" stroke="#000000" stroke-width="10" fill="#FFFFFF"/></g></g></g></g></svg>