<svg width="762" height="762" xmlns="http://www.w3.org/2000/svg" xmlns:xlink="http://www.w3.org/1999/xlink" overflow="hidden"><defs><clipPath id="clip0"><rect x="0" y="0" width="762" height="762"/></clipPath></defs><g clip-path="url(#clip0)"><rect x="0" y="0" width="762" height="762" fill="#FFFFFF"/><path d="M182 333C182 223.095 271.095 134 381 134 490.905 134 580 223.095 580 333 580 442.905 490.905 532 381 532 271.095 532 182 442.905 182 333Z" stroke="#172C51" stroke-width="6.00131" stroke-miterlimit="8" fill="none" fill-rule="evenodd"/><g><g><g><path d="M380.891 135.875C272.082 135.875 183.875 224.082 183.875 332.891 183.875 441.7 272.082 529.907 380.891 529.907 489.7 529.907 577.907 441.7 577.907 332.891 577.956 224.131 489.828 135.924 381.067 135.875 381.009 135.875 380.95 135.875 380.891 135.875ZM380.891 519.532C277.812 519.532 194.25 435.97 194.25 332.891 194.25 229.812 277.812 146.25 380.891 146.25 483.97 146.25 567.532 229.812 567.532 332.891 567.415 435.922 483.922 519.415 380.891 519.532Z"/><path d="M386.188 265.562 344.688 265.562 344.688 275.938 375.812 275.938 375.812 431.563 339.5 431.563 339.5 441.938 422.5 441.938 422.5 431.563 386.188 431.563 386.188 265.562Z"/><path d="M386.52 221.469C386.52 227.915 381.294 233.141 374.848 233.141 368.401 233.141 363.176 227.915 363.176 221.469 363.176 215.023 368.401 209.797 374.848 209.797 381.294 209.797 386.52 215.023 386.52 221.469Z"/></g></g></g></g></svg>