<svg width="762" height="762" xmlns="http://www.w3.org/2000/svg" xmlns:xlink="http://www.w3.org/1999/xlink" overflow="hidden"><defs><clipPath id="clip0"><rect x="0" y="0" width="762" height="762"/></clipPath></defs><g clip-path="url(#clip0)"><rect x="0" y="0" width="762" height="762" fill="#FFFFFF"/><g><g><g><path d="M394.208 521.008 394.208 556.01 367.792 556.01 367.792 521.008C352.602 515.725 341.375 501.196 341.375 483.365 341.375 461.571 359.206 443.74 381 443.74 402.794 443.74 420.625 461.571 420.625 483.365 420.625 500.535 409.398 515.065 394.208 521.008ZM281.938 278.635C281.938 223.821 326.185 179.573 381 179.573 435.815 179.573 480.063 223.821 480.063 278.635L480.063 351.942 381 344.677 281.938 351.942 281.938 278.635ZM519.688 354.583 519.688 278.635C519.688 202.027 457.608 139.948 381 139.948 304.392 139.948 242.313 202.027 242.313 278.635L242.313 354.583 196.083 357.885 196.083 608.844 381 622.052 565.917 608.844 565.917 357.885 519.688 354.583Z"/></g></g></g><path d="M204 597.334C204 587.761 211.761 580 221.334 580L540.666 580C550.239 580 558 587.761 558 597.334L558 666.666C558 676.239 550.239 684 540.666 684L221.334 684C211.761 684 204 676.239 204 666.666Z" stroke="#172C51" stroke-width="8.00175" stroke-miterlimit="8" fill="#FFFFFF" fill-rule="evenodd"/><text font-family="Calibri,Calibri_MSFontService,sans-serif" font-weight="400" font-size="96" transform="matrix(1 0 0 1 261.288 687)">* * * *</text></g></svg>