<?xml version="1.0" encoding="UTF-8" standalone="no"?>
<!DOCTYPE svg PUBLIC "-//W3C//DTD SVG 1.1//EN" "http://www.w3.org/Graphics/SVG/1.1/DTD/svg11.dtd">
<svg width="100%" height="100%" viewBox="0 0 1080 1080" version="1.1" xmlns="http://www.w3.org/2000/svg" xmlns:xlink="http://www.w3.org/1999/xlink" xml:space="preserve" xmlns:serif="http://www.serif.com/" style="fill-rule:evenodd;clip-rule:evenodd;stroke-linejoin:round;stroke-miterlimit:2;">
    <g id="_15" serif:id="15" transform="matrix(1.99714,0,0,1.99714,145.565,38.0228)">
        <g transform="matrix(1.86,0,0,5.08543,-2226.25,-8472.75)">
            <path d="M1394.76,1709.93C1394.76,1708.32 1393,1706.77 1389.88,1705.62C1386.75,1704.48 1382.51,1703.84 1378.09,1703.84C1340.78,1703.84 1250.89,1703.84 1213.58,1703.84C1209.15,1703.84 1204.92,1704.48 1201.79,1705.62C1198.66,1706.77 1196.91,1708.32 1196.91,1709.93C1196.91,1721.4 1196.91,1746.05 1196.91,1757.52C1196.91,1759.14 1198.66,1760.69 1201.79,1761.83C1204.92,1762.97 1209.15,1763.62 1213.58,1763.62C1250.89,1763.62 1340.78,1763.62 1378.09,1763.62C1382.51,1763.62 1386.75,1762.97 1389.88,1761.83C1393,1760.69 1394.76,1759.14 1394.76,1757.52C1394.76,1746.05 1394.76,1721.4 1394.76,1709.93Z" style="fill:rgb(172,172,172);"/>
            <clipPath id="_clip1">
                <path d="M1394.76,1709.93C1394.76,1708.32 1393,1706.77 1389.88,1705.62C1386.75,1704.48 1382.51,1703.84 1378.09,1703.84C1340.78,1703.84 1250.89,1703.84 1213.58,1703.84C1209.15,1703.84 1204.92,1704.48 1201.79,1705.62C1198.66,1706.77 1196.91,1708.32 1196.91,1709.93C1196.91,1721.4 1196.91,1746.05 1196.91,1757.52C1196.91,1759.14 1198.66,1760.69 1201.79,1761.83C1204.92,1762.97 1209.15,1763.62 1213.58,1763.62C1250.89,1763.62 1340.78,1763.62 1378.09,1763.62C1382.51,1763.62 1386.75,1762.97 1389.88,1761.83C1393,1760.69 1394.76,1759.14 1394.76,1757.52C1394.76,1746.05 1394.76,1721.4 1394.76,1709.93Z"/>
            </clipPath>
            <g clip-path="url(#_clip1)">
                <g transform="matrix(0.537634,0,0,0.19664,1196.91,1666.08)">
                    <path d="M368,464L0,464L0,224C0,206.398 14.398,192 32,192L336,192C353.602,192 368,206.398 368,224L368,464Z" style="fill:rgb(198,198,198);fill-rule:nonzero;"/>
                </g>
                <g transform="matrix(0.537634,0,0,0.19664,1196.91,1666.08)">
                    <rect x="64" y="192" width="240" height="272" style="fill:rgb(234,234,234);"/>
                </g>
            </g>
        </g>
        <g>
            <circle cx="184" cy="296" r="32" style="fill:rgb(149,149,149);"/>
            <path d="M216,392L152,392L168,312L200,312L216,392Z" style="fill:rgb(149,149,149);fill-rule:nonzero;"/>
        </g>
        <path d="M328,176C319.164,176 312,168.836 312,160C312,89.422 254.578,32 184,32C113.422,32 56,89.422 56,160C56,168.836 48.836,176 40,176C31.164,176 24,168.836 24,160C24,71.781 95.781,0 184,0C272.219,0 344,71.781 344,160C344,168.836 336.836,176 328,176Z" style="fill:rgb(211,215,217);fill-rule:nonzero;"/>
    </g>
</svg>
