<?xml version="1.0" encoding="UTF-8" standalone="no"?>
<!DOCTYPE svg PUBLIC "-//W3C//DTD SVG 1.1//EN" "http://www.w3.org/Graphics/SVG/1.1/DTD/svg11.dtd">
<svg width="100%" height="100%" viewBox="0 0 1080 1080" version="1.1" xmlns="http://www.w3.org/2000/svg" xmlns:xlink="http://www.w3.org/1999/xlink" xml:space="preserve" xmlns:serif="http://www.serif.com/" style="fill-rule:evenodd;clip-rule:evenodd;stroke-linejoin:round;stroke-miterlimit:2;">
    <g id="credit-card" transform="matrix(14.7726,0,0,15.3036,-4072.11,-2742.22)">
        <g transform="matrix(1.04458,0,0,1.02974,-13.9489,-6.92826)">
            <path d="M342,195C342,193.9 341.1,193 340,193L284,193C282.9,193 282,193.9 282,195L282,231C282,232.1 282.9,233 284,233L340,233C341.1,233 342,232.1 342,231L342,195Z" style="fill:white;fill-rule:nonzero;stroke:black;stroke-width:2.6px;"/>
        </g>
        <g transform="matrix(0.584613,0,0,1,140.401,0)">
            <rect x="306" y="213" width="32" height="5" style="fill-rule:nonzero;"/>
        </g>
        <g transform="matrix(0.660598,0,0,1,114.718,-9.72614)">
            <rect x="306" y="213" width="32" height="5" style="fill-rule:nonzero;"/>
        </g>
        <g transform="matrix(1.11579,0,0,1,-39.1362,0)">
            <rect x="324" y="222" width="14" height="5" style="fill-rule:nonzero;"/>
        </g>
    </g>
    <g transform="matrix(1.05147,0,0,0.743875,-19.7781,184.582)">
        <path d="M502.38,728.846L242.75,730.499C230.496,730.577 218.898,722.683 211.301,709.094C203.703,695.505 200.95,677.731 203.835,660.898L234.439,482.363C238.71,457.445 254.345,439.747 272.481,439.302L474.32,434.342C493.413,433.873 510.059,452.612 514.007,479.021L541.194,660.862C543.672,677.437 540.742,694.708 533.215,707.891C525.689,721.074 514.364,728.77 502.38,728.846Z" style="stroke:black;stroke-width:45.61px;stroke-linecap:round;stroke-miterlimit:1.5;"/>
    </g>
    <g transform="matrix(1.53628,0,0,1.57129,-195.397,-293.792)">
        <ellipse cx="370.576" cy="430.443" rx="75.432" ry="71.242" style="stroke:black;stroke-width:20.59px;stroke-linecap:round;stroke-miterlimit:1.5;"/>
    </g>
</svg>
