<svg width="762" height="762" xmlns="http://www.w3.org/2000/svg" xmlns:xlink="http://www.w3.org/1999/xlink" overflow="hidden"><defs><clipPath id="clip0"><rect x="0" y="0" width="762" height="762"/></clipPath></defs><g clip-path="url(#clip0)"><rect x="0" y="0" width="762" height="762" fill="#FFFFFF"/><path d="M96 220.456C96 202.531 110.531 188 128.456 188L633.544 188C651.469 188 666 202.531 666 220.456L666 499.544C666 517.469 651.469 532 633.544 532L128.456 532C110.531 532 96 517.469 96 499.544Z" stroke="#0D0D0D" stroke-width="14.0031" stroke-miterlimit="8" fill="none" fill-rule="evenodd"/><g><g><g><path d="M565.333 313.375C565.333 341.173 542.798 363.708 515 363.708 487.202 363.708 464.667 341.173 464.667 313.375 464.667 285.577 487.202 263.042 515 263.042 542.798 263.042 565.333 285.577 565.333 313.375Z"/><path d="M615.667 476.958 615.667 426.625C615.667 419.075 611.892 411.525 605.6 406.492 591.758 395.167 574.142 387.617 556.525 382.583 543.942 378.808 530.1 376.292 515 376.292 501.158 376.292 487.317 378.808 473.475 382.583 455.858 387.617 438.242 396.425 424.4 406.492 418.108 411.525 414.333 419.075 414.333 426.625L414.333 476.958 615.667 476.958Z"/></g></g></g><path d="M145.5 263.5 403.556 263.5" stroke="#0D0D0D" stroke-width="11.3358" stroke-miterlimit="8" fill="none" fill-rule="evenodd"/><path d="M145.5 312.5 396.698 312.5" stroke="#0D0D0D" stroke-width="11.3358" stroke-miterlimit="8" fill="none" fill-rule="evenodd"/><path d="M145.5 360.5 364.81 360.5" stroke="#0D0D0D" stroke-width="11.3358" stroke-miterlimit="8" fill="none" fill-rule="evenodd"/></g></svg>